<?xml version="1.0" encoding="UTF-8" standalone="no"?>
<svg
   xmlns:osb="http://www.openswatchbook.org/uri/2009/osb"
   xmlns:dc="http://purl.org/dc/elements/1.1/"
   xmlns:cc="http://creativecommons.org/ns#"
   xmlns:rdf="http://www.w3.org/1999/02/22-rdf-syntax-ns#"
   xmlns:svg="http://www.w3.org/2000/svg"
   xmlns="http://www.w3.org/2000/svg"
   xmlns:xlink="http://www.w3.org/1999/xlink"
   xmlns:sodipodi="http://sodipodi.sourceforge.net/DTD/sodipodi-0.dtd"
   xmlns:inkscape="http://www.inkscape.org/namespaces/inkscape"
   width="210mm"
   height="297mm"
   viewBox="0 0 210 297"
   version="1.1"
   id="svg8"
   inkscape:version="1.0.2 (e86c870879, 2021-01-15, custom)"
   sodipodi:docname="logoPrincipal.svg"
   inkscape:export-filename="C:\Users\Admin\Desktop\logoPrincipal.png"
   inkscape:export-xdpi="96"
   inkscape:export-ydpi="96">
  <defs
     id="defs2">
    <linearGradient
       inkscape:collect="always"
       id="linearGradient1095">
      <stop
         style="stop-color:#000000;stop-opacity:1;"
         offset="0"
         id="stop1091" />
      <stop
         style="stop-color:#000000;stop-opacity:0;"
         offset="1"
         id="stop1093" />
    </linearGradient>
    <linearGradient
       id="linearGradient908"
       osb:paint="solid">
      <stop
         style="stop-color:#010000;stop-opacity:1;"
         offset="0"
         id="stop906" />
    </linearGradient>
    <radialGradient
       inkscape:collect="always"
       xlink:href="#linearGradient1095"
       id="radialGradient1101"
       cx="108.61138"
       cy="96.291283"
       fx="108.61138"
       fy="96.291283"
       r="31.59823"
       gradientUnits="userSpaceOnUse" />
  </defs>
  <sodipodi:namedview
     id="base"
     pagecolor="#000000"
     bordercolor="#666666"
     borderopacity="1.0"
     inkscape:pageopacity="0"
     inkscape:pageshadow="2"
     inkscape:zoom="1.6321572"
     inkscape:cx="345.45364"
     inkscape:cy="390.16247"
     inkscape:document-units="mm"
     inkscape:current-layer="layer1"
     inkscape:document-rotation="0"
     showgrid="false"
     inkscape:snap-page="false"
     inkscape:window-width="1920"
     inkscape:window-height="1001"
     inkscape:window-x="-9"
     inkscape:window-y="-9"
     inkscape:window-maximized="1" />
  <metadata
     id="metadata5">
    <rdf:RDF>
      <cc:Work
         rdf:about="">
        <dc:format>image/svg+xml</dc:format>
        <dc:type
           rdf:resource="http://purl.org/dc/dcmitype/StillImage" />
        <dc:title />
      </cc:Work>
    </rdf:RDF>
  </metadata>
  <g
     inkscape:label="Capa 1"
     inkscape:groupmode="layer"
     id="layer1">
    <rect
       style="fill:#ffffff;stroke-width:0.264583"
       id="rect28"
       width="82.943306"
       height="80.596664"
       x="67.478867"
       y="57.060177"
       ry="2.7341945" />
    <circle
       style="fill:#000000;stroke-width:0.264583"
       id="path41"
       cx="73.139252"
       cy="62.573273"
       r="2.1955535" />
    <circle
       style="fill:#000000;stroke-width:0.264583"
       id="path41-0"
       cx="143.39696"
       cy="62.102798"
       r="2.1955535" />
    <circle
       style="fill:#000000;stroke-width:0.264583"
       id="path41-1"
       cx="72.8256"
       cy="132.83099"
       r="2.1955535" />
    <path
       sodipodi:type="star"
       style="fill:#ffa549;fill-opacity:0.9;stroke:url(#radialGradient1101);stroke-width:0.264999;stroke-miterlimit:4;stroke-dasharray:none"
       id="path1087"
       sodipodi:sides="8"
       sodipodi:cx="108.61138"
       sodipodi:cy="96.291283"
       sodipodi:r1="31.678968"
       sodipodi:r2="15.839484"
       sodipodi:arg1="0.66663627"
       sodipodi:arg2="1.0593354"
       inkscape:flatsided="true"
       inkscape:rounded="0"
       inkscape:randomized="0"
       d="M 133.50807,115.87984 112.3648,127.74711 89.022821,121.18798 77.155557,100.0447 83.714688,76.702722 104.85797,64.835458 l 23.34197,6.559131 11.86727,21.143277 z"
       transform="matrix(-1.0286854,-0.57594729,0.57594729,-1.0286854,165.39484,259.54911)"
       inkscape:transform-center-y="-1.7863919e-05"
       inkscape:transform-center-x="9.7252827e-06" />
    <circle
       style="fill:#000000;stroke-width:0.264583"
       id="path41-2"
       cx="144.49474"
       cy="132.67415"
       r="2.1955535" />
    <ellipse
       style="fill:#ffffff;stroke-width:0.309865;stroke-miterlimit:4;stroke-dasharray:none"
       id="path912"
       cx="108.89542"
       cy="98.01577"
       rx="30.737749"
       ry="31.521875" />
    <ellipse
       style="fill:#000000;stroke-width:0.242415;stroke-miterlimit:4;stroke-dasharray:none"
       id="path914"
       cx="108.6799"
       cy="97.702126"
       rx="9.7231655"
       ry="9.5663395" />
    <ellipse
       style="fill:#ffffff;stroke-width:0.281209;stroke-miterlimit:4;stroke-dasharray:none"
       id="path976"
       cx="108.83758"
       cy="97.645134"
       rx="6.6955881"
       ry="6.5494409" />
    <text
       xml:space="preserve"
       style="font-style:normal;font-weight:normal;font-size:8.23597px;line-height:1.25;font-family:'Eras Bold ITC';white-space:pre;inline-size:7.92798;fill:#000000;fill-opacity:1;stroke:none;stroke-width:0.2059;-inkscape-font-specification:'Eras Bold ITC';font-stretch:normal;font-variant:normal;"
       x="103.69681"
       y="100.70363"
       id="text980"
       transform="matrix(1.5631209,0,0,1.5631209,-58.746524,-56.70832)"><tspan
         style="visibility:hidden"
         x="103.69681"
         y="100.70363"><tspan
           dx="0 4.8740211 3.5388932 4.8740215"
           style="font-style:normal;font-variant:normal;font-weight:normal;font-stretch:normal;font-family:'Eras Bold ITC';-inkscape-font-specification:'Eras Bold ITC'">erer</tspan></tspan></text>
    <path
       style="fill:#000000;stroke:#000000;stroke-width:0.119069px;stroke-linecap:butt;stroke-linejoin:miter;stroke-opacity:1"
       d="m 101.49991,94.062026 c -1.00786,-0.275694 -11.874094,-3.188961 -18.612983,4.119506 -2.884957,3.128788 0.932068,16.096608 2.525829,14.192768 3.89206,-4.64929 8.28042,-11.38044 14.643814,-12.659237 -0.144067,-2.276848 0.43116,-3.932949 1.44334,-5.653037 z"
       id="path78"
       sodipodi:nodetypes="csscc" />
    <path
       style="fill:#000000;stroke:#000000;stroke-width:0.119069px;stroke-linecap:butt;stroke-linejoin:miter;stroke-opacity:1"
       d="m 106.9663,90.580651 c -0.40449,-0.9634 -4.81231,-11.313928 -14.721411,-12.111687 -4.242147,-0.341496 -12.096482,10.660427 -9.614923,10.74095 6.060156,0.196634 14.065207,-0.4999 18.996144,3.720772 1.7035,-1.517542 3.36194,-2.086012 5.3402,-2.349993 z"
       id="path78-1"
       sodipodi:nodetypes="csscc" />
    <path
       style="fill:#000000;stroke:#000000;stroke-width:0.119069px;stroke-linecap:butt;stroke-linejoin:miter;stroke-opacity:1"
       d="m 113.73107,92.212285 c 0.49748,-0.918856 5.80339,-10.839019 0.21714,-19.062172 -2.3915,-3.520375 -15.887428,-2.74949 -14.395479,-0.764853 3.643429,4.846601 9.201499,10.649526 9.001079,17.137057 2.25004,0.377004 3.73212,1.313454 5.17726,2.689968 z"
       id="path78-3"
       sodipodi:nodetypes="csscc" />
    <path
       style="fill:#000000;stroke:#000000;stroke-width:0.119069px;stroke-linecap:butt;stroke-linejoin:miter;stroke-opacity:1"
       d="m 117.08795,98.05103 c 1.03684,-0.129316 12.19306,-1.578886 15.63662,-10.904543 1.47424,-3.992405 -6.99852,-14.52552 -7.74608,-12.157822 -1.82559,5.782001 -3.31621,13.677799 -8.71145,17.286066 1.00121,2.049966 1.10072,3.800293 0.82138,5.776254 z"
       id="path78-11"
       sodipodi:nodetypes="csscc" />
    <path
       style="fill:#000000;stroke:#000000;stroke-width:0.119069px;stroke-linecap:butt;stroke-linejoin:miter;stroke-opacity:1"
       d="m 113.9967,104.38454 c 0.75805,0.71916 8.95896,8.4203 18.35112,5.16238 4.02085,-1.39467 6.78291,-14.627423 4.47876,-13.702366 -5.6268,2.259042 -12.67451,6.118556 -18.88717,4.239416 -0.94861,2.07487 -2.23815,3.26263 -3.94272,4.30055 z"
       id="path78-4"
       sodipodi:nodetypes="csscc" />
    <path
       style="fill:#000000;stroke:#000000;stroke-width:0.119069px;stroke-linecap:butt;stroke-linejoin:miter;stroke-opacity:1"
       d="m 101.66326,101.54133 c -0.85272,0.60387 -10.0007,7.15188 -8.630108,16.99808 0.586722,4.21523 13.030468,9.49615 12.570798,7.05618 -1.12256,-5.95852 -3.53889,-13.62189 -0.48829,-19.35095 -1.85091,-1.33376 -2.7656,-2.8294 -3.4524,-4.70331 z"
       id="path78-0"
       sodipodi:nodetypes="csscc" />
    <path
       style="fill:#000000;stroke:#000000;stroke-width:0.119069px;stroke-linecap:butt;stroke-linejoin:miter;stroke-opacity:1"
       d="m 106.57718,106.13995 c 0.0122,1.04485 0.20145,12.29324 9.08207,16.76096 3.80185,1.9127 15.21879,-5.32528 12.9499,-6.33364 -5.54078,-2.46253 -13.21959,-4.82929 -16.19997,-10.59524 -2.14935,0.76504 -3.89981,0.66776 -5.83196,0.16791 z"
       id="path78-4-5"
       sodipodi:nodetypes="csscc" />
    <text
       xml:space="preserve"
       style="font-style:normal;font-variant:normal;font-weight:normal;font-stretch:normal;font-size:7.76111px;line-height:1.25;font-family:'Eras Bold ITC';-inkscape-font-specification:'Eras Bold ITC';fill:#000000;fill-opacity:1;stroke:none;stroke-width:0.264583"
       x="103.74818"
       y="100.34394"
       id="text859"><tspan
         sodipodi:role="line"
         id="tspan857"
         x="103.74818"
         y="100.34394"
         style="font-style:normal;font-variant:normal;font-weight:normal;font-stretch:normal;font-size:7.76111px;font-family:'Eras Bold ITC';-inkscape-font-specification:'Eras Bold ITC';stroke-width:0.264583">TR</tspan></text>
  </g>
</svg>
